<svg width="1200" height="630" viewBox="0 0 1200 630" fill="none" xmlns="http://www.w3.org/2000/svg">
  <defs>
    <linearGradient id="bg" x1="0" y1="0" x2="1200" y2="630" gradientUnits="userSpaceOnUse">
      <stop stop-color="#fff7ed"/>
      <stop offset="1" stop-color="#ffffff"/>
    </linearGradient>
  </defs>
  <rect width="1200" height="630" fill="url(#bg)"/>
  <rect x="0" y="0" width="1200" height="12" fill="#FF9933"/>
  <rect x="0" y="618" width="1200" height="12" fill="#138808"/>
  <g transform="translate(90,150)">
    <rect width="96" height="96" rx="22" fill="#ea580c"/>
    <path d="M48 18c16.568 0 30 13.432 30 30s-13.432 30-30 30S18 64.568 18 48" stroke="#fff" stroke-width="6" stroke-linecap="round"/>
    <circle cx="48" cy="48" r="8.4" fill="#fff"/>
  </g>
  <text x="210" y="218" font-family="Segoe UI, Arial, sans-serif" font-size="58" font-weight="800" fill="#0f172a">India<tspan fill="#ea580c">Assist</tspan></text>
  <text x="92" y="330" font-family="Segoe UI, Arial, sans-serif" font-size="44" font-weight="700" fill="#1e293b">Schemes, Scholarships &amp; Finance Tools</text>
  <text x="92" y="392" font-family="Segoe UI, Arial, sans-serif" font-size="30" fill="#475569">Discover government benefits, check eligibility and plan your money</text>
  <text x="92" y="436" font-family="Segoe UI, Arial, sans-serif" font-size="30" fill="#475569">— India's assistance engine.</text>
  <g font-family="Segoe UI, Arial, sans-serif" font-size="24" font-weight="600" fill="#9a3412">
    <rect x="92" y="486" width="190" height="56" rx="28" fill="#ffedd5"/>
    <text x="120" y="522">Government Schemes</text>
    <rect x="300" y="486" width="150" height="56" rx="28" fill="#ffedd5"/>
    <text x="328" y="522">Calculators</text>
    <rect x="468" y="486" width="190" height="56" rx="28" fill="#ffedd5"/>
    <text x="496" y="522">Eligibility Engine</text>
  </g>
</svg>
